{
    "asset" : {
        "generator" : "Khronos glTF Blender I/O v1.6.16",
        "version" : "2.0"
    },
    "scene" : 0,
    "scenes" : [
        {
            "name" : "Scene",
            "nodes" : [
                2
            ]
        }
    ],
    "nodes" : [
        {
            "name" : "WoodBox43",
            "rotation" : [
                -0.7071068286895752,
                0,
                0,
                0.7071068286895752
            ]
        },
        {
            "mesh" : 0,
            "name" : "WoodBox43__WoodBoxMat00",
            "skin" : 0
        },
        {
            "children" : [
                1,
                0
            ],
            "name" : "Armature",
            "rotation" : [
                0.7071068286895752,
                0,
                0,
                0.7071068286895752
            ],
            "scale" : [
                0.004066236782819033,
                0.004066236782819033,
                0.004066236782819033
            ]
        }
    ],
    "materials" : [
        {
            "doubleSided" : true,
            "name" : "WoodBoxMat00",
            "pbrMetallicRoughness" : {
                "baseColorTexture" : {
                    "index" : 0
                },
                "metallicFactor" : 0,
                "roughnessFactor" : 0.5
            }
        }
    ],
    "meshes" : [
        {
            "name" : "WoodBox43__WoodBoxMat00",
            "primitives" : [
                {
                    "attributes" : {
                        "POSITION" : 0,
                        "NORMAL" : 1,
                        "TEXCOORD_0" : 2,
                        "COLOR_0" : 3,
                        "JOINTS_0" : 4,
                        "WEIGHTS_0" : 5
                    },
                    "indices" : 6,
                    "material" : 0
                }
            ]
        }
    ],
    "textures" : [
        {
            "sampler" : 0,
            "source" : 0
        }
    ],
    "images" : [
        {
            "bufferView" : 7,
            "mimeType" : "image/png",
            "name" : "WoodBox_alb"
        }
    ],
    "skins" : [
        {
            "inverseBindMatrices" : 7,
            "joints" : [
                0
            ],
            "name" : "Armature"
        }
    ],
    "accessors" : [
        {
            "bufferView" : 0,
            "componentType" : 5126,
            "count" : 1196,
            "max" : [
                0.4101194143295288,
                0.8202388286590576,
                0.4091915488243103
            ],
            "min" : [
                -0.4101194143295288,
                0.0018565934151411057,
                -0.40919065475463867
            ],
            "type" : "VEC3"
        },
        {
            "bufferView" : 1,
            "componentType" : 5126,
            "count" : 1196,
            "type" : "VEC3"
        },
        {
            "bufferView" : 2,
            "componentType" : 5126,
            "count" : 1196,
            "type" : "VEC2"
        },
        {
            "bufferView" : 3,
            "componentType" : 5123,
            "count" : 1196,
            "normalized" : true,
            "type" : "VEC4"
        },
        {
            "bufferView" : 4,
            "componentType" : 5121,
            "count" : 1196,
            "type" : "VEC4"
        },
        {
            "bufferView" : 5,
            "componentType" : 5126,
            "count" : 1196,
            "type" : "VEC4"
        },
        {
            "bufferView" : 6,
            "componentType" : 5123,
            "count" : 1224,
            "type" : "SCALAR"
        },
        {
            "bufferView" : 8,
            "componentType" : 5126,
            "count" : 1,
            "type" : "MAT4"
        }
    ],
    "bufferViews" : [
        {
            "buffer" : 0,
            "byteLength" : 14352,
            "byteOffset" : 0
        },
        {
            "buffer" : 0,
            "byteLength" : 14352,
            "byteOffset" : 14352
        },
        {
            "buffer" : 0,
            "byteLength" : 9568,
            "byteOffset" : 28704
        },
        {
            "buffer" : 0,
            "byteLength" : 9568,
            "byteOffset" : 38272
        },
        {
            "buffer" : 0,
            "byteLength" : 4784,
            "byteOffset" : 47840
        },
        {
            "buffer" : 0,
            "byteLength" : 19136,
            "byteOffset" : 52624
        },
        {
            "buffer" : 0,
            "byteLength" : 2448,
            "byteOffset" : 71760
        },
        {
            "buffer" : 0,
            "byteLength" : 37466,
            "byteOffset" : 74208
        },
        {
            "buffer" : 0,
            "byteLength" : 64,
            "byteOffset" : 111676
        }
    ],
    "samplers" : [
        {
            "magFilter" : 9729,
            "minFilter" : 9987
        }
    ],
    "buffers" : [
        {
            "byteLength" : 111740,
            "uri" : "data:application/octet-stream;base64,"
        }
    ]
}
